<?xml version="1.0" encoding="utf-8"?>
<!-- Generator: Adobe Illustrator 26.4.1, SVG Export Plug-In . SVG Version: 6.00 Build 0)  -->
<svg version="1.1" id="Layer_1" xmlns="http://www.w3.org/2000/svg" xmlns:xlink="http://www.w3.org/1999/xlink" x="0px" y="0px"
	 viewBox="0 0 219.5 45" style="enable-background:new 0 0 219.5 45;" xml:space="preserve">
<style type="text/css">
	.st0{fill:#ED0973;}
	.st1{fill:#231F20;}
</style>
<g>
	<g>
		<g>
			<path class="st0" d="M108.2,0.1c10.9,0,17.4,8.1,17.4,18.6c0,10.1-6.5,18.3-17.4,18.3s-17.4-8.1-17.4-18.3
				C90.8,8.2,97.3,0.1,108.2,0.1z M108.2,30.4c7,0,9.6-5.9,9.6-11.8c0-6.2-2.6-12.1-9.6-12.1c-7,0-9.6,5.9-9.6,12.1
				C98.6,24.5,101.2,30.4,108.2,30.4z"/>
			<path class="st0" d="M163.9,25c0.2,4.5,2.3,6.4,6.3,6.4c2.8,0,5.1-1.7,5.6-3.3h6.2c-2,6.1-6.2,8.6-12,8.6
				c-8.1,0-13.1-5.5-13.1-13.4c0-7.6,5.3-13.4,13.1-13.4c8.7,0,13,7.3,12.5,15.1H163.9z M175.3,20.6c-0.6-3.5-2.2-5.4-5.6-5.4
				c-4.6,0-5.7,3.4-5.9,5.4H175.3z"/>
			<path class="st0" d="M185.3,10.6h6.7v3.5h0.1c1.8-2.9,4.9-4.2,7.8-4.2c7.5,0,9.4,4.2,9.4,10.5V36h-7.1V21.7
				c0-4.2-1.2-6.2-4.5-6.2c-3.8,0-5.5,2.1-5.5,7.3V36h-7.1L185.3,10.6L185.3,10.6z"/>
		</g>
		<path class="st0" d="M142.8,9.9c-3.2,0-5.9,1.2-7.6,3.9h-0.1v-3.2h-6.7V45h6.8V23h0c0.1-4,1.6-7.8,6.1-7.8c4.5,0,6.2,4.1,6.2,8.2
			c0,4.1-1.5,8.1-6.1,8.1c-0.7,0-1.3-0.2-1.9-0.5l0,2.9V36c1.2,0.5,2.4,0.7,3.7,0.7c7.5,0,11.3-6.3,11.3-13.1
			C154.5,16.3,150.8,9.9,142.8,9.9z"/>
	</g>
	<g>
		<g>
			<path d="M33.3,0.8L27.1,17H30l1.5-4.3H38l1.5,4.3h3L36.3,0.8H33.3z M32.3,10.5l2.4-7h0.1l2.4,7H32.3z"/>
			<path d="M27.5,0.8h-2.8v11.1c0,2-0.4,3.1-2.3,3.1c-1.7,0-2.2-1.1-2.2-2.9v-0.8h-2.8v0.9c0,3,1.4,5.2,4.8,5.2
				c4.6,0,5.3-2.8,5.3-5.6V0.8z"/>
			<polygon points="51.9,13.5 51.8,13.5 47.4,0.8 43.4,0.8 43.4,17 46.1,17 46.1,4.5 46.1,4.5 50.6,17 52.9,17 57.4,4.5 57.5,4.5 
				57.5,17 60.2,17 60.2,0.8 56.2,0.8 			"/>
			<path d="M67.2,0.8L61,17h2.9l1.5-4.3h6.5l1.5,4.3h3L70.2,0.8H67.2z M66.2,10.5l2.4-7h0.1l2.4,7H66.2z"/>
		</g>
	</g>
	<g>
		<g>
			<polygon points="71.1,28.6 76.1,24.3 74.2,24.3 67.7,29.9 67.7,19.8 66.3,19.8 66.3,36 67.7,36 67.7,31.5 70,29.6 74.6,36 
				76.4,36 			"/>
			<path d="M60.7,27L60.7,27l0-2.7h-1.3V36h1.4v-6.2c0-2.4,1.8-4.3,4.3-4.2v-1.4C63,24,61.4,25.1,60.7,27z"/>
			<path d="M19.3,23.9c-3.7,0-5.3,3.1-5.3,6.2c0,3.3,1.6,6.2,5.3,6.2c3,0,4.5-1.5,5.1-4.2H23c-0.5,1.8-1.6,3-3.7,3
				c-2.7,0-3.9-2.5-3.9-4.6h9C24.6,27.2,23,23.9,19.3,23.9z M19.3,25.1c2.3,0,3.6,2,3.7,4.2h-7.6C15.7,27.2,17,25.1,19.3,25.1z"/>
			<path d="M28,20.8h-1.4v3.5h-2v1.2h2v8c0,2,0.6,2.6,2.5,2.6c0.4,0,0.8,0,1.3,0v-1.2c-0.4,0-0.8,0.1-1.2,0.1
				c-1-0.1-1.2-0.6-1.2-1.5v-7.9h2.4v-1.2H28L28,20.8L28,20.8z"/>
			<path d="M52.8,23.9c-3.6,0-5.5,2.8-5.5,6.2c0,3.4,2,6.2,5.5,6.2c3.6,0,5.5-2.8,5.5-6.2C58.3,26.8,56.4,23.9,52.8,23.9z
				 M52.8,35.1c-2.7,0-4.1-2.5-4.1-5s1.4-5,4.1-5c2.7,0,4.1,2.5,4.1,5S55.5,35.1,52.8,35.1z"/>
			<polygon points="11.2,33.5 11.2,33.5 1.8,19.8 0.1,19.8 0.1,36 1.6,36 1.6,22.3 1.6,22.3 11.1,36 12.8,36 12.8,19.8 11.2,19.8 
							"/>
			<polygon points="45.9,24.3 43,34.3 42.9,34.3 40.1,24.3 38.4,24.3 35.6,34.3 35.5,34.3 32.6,24.3 31,24.3 34.8,36 36.4,36 
				39.2,26.1 39.3,26.1 42.1,36 43.7,36 47.5,24.3 			"/>
		</g>
	</g>
	<g>
		<rect x="83.9" y="0.7" class="st1" width="1.4" height="44.2"/>
	</g>
	<g>
		<path d="M214.9,33.1h-1.1V36h-0.6v-2.9h-1.1v-0.4h2.7L214.9,33.1L214.9,33.1z M219.3,36h-0.6v-2.8h0l-1.1,2.8h-0.4l-1.1-2.8h0V36
			h-0.6v-3.4h0.9l1,2.6l1-2.6h0.8L219.3,36L219.3,36z"/>
	</g>
</g>
</svg>
